<svg xmlns="http://www.w3.org/2000/svg" xmlns:xlink="http://www.w3.org/1999/xlink" width="500" zoomAndPan="magnify" viewBox="0 0 375 374.999991" height="500" preserveAspectRatio="xMidYMid meet" version="1.0"><defs><clipPath id="fb856673f3"><path d="M 187.5 0 C 83.945312 0 0 83.945312 0 187.5 C 0 291.054688 83.945312 375 187.5 375 C 291.054688 375 375 291.054688 375 187.5 C 375 83.945312 291.054688 0 187.5 0 " clip-rule="nonzero"/></clipPath><clipPath id="fa1814ba6c"><path d="M 168 104.488281 L 330.4375 104.488281 L 330.4375 257 L 168 257 Z M 168 104.488281 " clip-rule="nonzero"/></clipPath></defs>
<g clip-path="url(#fb856673f3)"><rect x="-37.5" width="450" fill="#1a56db" y="-37.499999" height="449.999989" fill-opacity="1"/></g><path fill="#ffffff" d="M 56.546875 223.109375 C 56.488281 223.109375 56.488281 223.167969 56.546875 223.109375 C 56.488281 223.167969 56.488281 223.167969 56.546875 223.109375 Z M 56.546875 223.109375 " fill-opacity="1" fill-rule="nonzero"/><path fill="#ffffff" d="M 250.988281 236.03125 C 237.296875 247.699219 218.816406 253.902344 200.792969 251.855469 C 181.742188 249.863281 163.949219 239.160156 153.109375 223.453125 C 163.378906 219.867188 173.414062 215.9375 183.453125 211.78125 C 183.339844 210.417969 183.339844 210.472656 183.226562 209.109375 C 180.71875 208.539062 178.265625 207.742188 176.039062 206.488281 C 173.929688 207.230469 171.820312 208.027344 169.707031 208.765625 C 150.773438 215.3125 131.265625 221.175781 111.1875 222.199219 C 104.800781 222.257812 97.839844 222.140625 92.363281 218.441406 C 89.113281 216.335938 87.746094 212.179688 88.773438 208.539062 C 90.3125 202.335938 94.648438 197.382812 98.925781 192.886719 C 107.480469 184.175781 117.40625 176.890625 127.730469 170.402344 C 127.386719 171.824219 127.042969 173.25 126.703125 174.671875 C 118.089844 180.476562 109.535156 186.566406 102.289062 194.082031 C 98.640625 198.179688 94.648438 202.734375 94.191406 208.480469 C 93.847656 211.726562 95.789062 214.96875 98.808594 216.28125 C 105.027344 219.238281 112.15625 218.613281 118.886719 218.273438 C 135.65625 216.449219 151.914062 211.328125 167.65625 205.523438 C 169.824219 204.726562 171.988281 203.8125 174.101562 202.960938 C 174.441406 200.855469 174.84375 198.75 175.242188 196.640625 C 165.375 200.742188 155.050781 203.699219 144.613281 205.976562 C 140.449219 192.429688 140.617188 177.515625 145.582031 164.199219 C 153.453125 141.601562 174.558594 124.410156 198.339844 121.167969 L 187.277344 107.449219 C 163.320312 113.484375 142.617188 131.015625 132.917969 153.726562 C 131.949219 155.886719 131.320312 158.5625 128.871094 159.53125 C 118.03125 165.449219 107.421875 171.824219 97.269531 178.828125 C 89.113281 184.460938 81.070312 190.4375 73.828125 197.269531 C 70.234375 200.683594 66.753906 204.269531 63.730469 208.253906 C 60.765625 211.898438 57.914062 216.164062 56.945312 220.945312 C 56.375 223.851562 56.546875 226.980469 57.855469 229.65625 C 62.019531 237.964844 74.457031 238.363281 82.441406 238.476562 C 93.449219 238.59375 104.515625 236.601562 115.238281 234.210938 C 122.710938 232.558594 130.125 230.566406 137.539062 228.402344 C 137.597656 228.402344 137.652344 228.347656 137.652344 228.347656 C 138.453125 229.597656 139.25 230.90625 140.046875 232.160156 C 125.503906 237.398438 110.21875 240.46875 94.875 242.347656 C 83.238281 243.65625 71.261719 244.453125 59.683594 242.234375 C 53.523438 241.097656 46.277344 237.625 46.164062 230.453125 C 45.535156 233.242188 44.738281 236.371094 46.390625 238.992188 C 49.414062 244.171875 55.691406 245.933594 61.050781 247.414062 C 67.726562 249.234375 74.855469 249.066406 81.757812 249.007812 C 84.949219 248.953125 88.144531 248.835938 91.339844 248.554688 C 109.25 247.015625 126.871094 242.746094 144.042969 237.566406 C 160.867188 258.457031 188.304688 270.238281 215.054688 267.5625 C 227.832031 266.367188 240.378906 262.214844 251.214844 255.328125 C 251.386719 248.835938 250.875 242.40625 250.988281 236.03125 Z M 117.691406 204.953125 C 115.351562 203.300781 114.609375 200.058594 115.695312 197.4375 C 117.519531 192.203125 121.738281 188.332031 125.5625 184.519531 C 125.445312 192.316406 126.417969 200.113281 128.355469 207.683594 C 124.707031 207.34375 120.769531 207.171875 117.691406 204.953125 Z M 117.691406 204.953125 " fill-opacity="1" fill-rule="nonzero"/><g clip-path="url(#fa1814ba6c)"><path fill="#ffffff" d="M 330.097656 137.84375 C 327.589844 135.453125 324.222656 134.144531 320.800781 134.316406 C 310.25 134.882812 300.382812 139.722656 290.800781 143.933594 C 288.460938 144.960938 286.121094 145.984375 283.785156 147.066406 C 276.539062 142.796875 269.238281 138.699219 261.9375 134.542969 C 263.820312 133.519531 265.761719 132.609375 267.527344 131.414062 C 268.554688 130.671875 269.238281 129.476562 269.125 128.226562 C 269.070312 127.597656 268.953125 127.03125 268.726562 126.402344 C 267.757812 123.785156 264.90625 122.417969 262.167969 123.101562 C 260.683594 123.5 259.144531 123.957031 258.175781 124.242188 C 256.40625 124.867188 254.636719 125.492188 252.871094 126.175781 C 251.445312 126.347656 249.847656 127.371094 248.476562 126.574219 C 245.167969 124.867188 241.976562 122.875 238.894531 120.769531 L 243.6875 117.808594 C 245.738281 116.554688 246.59375 114.050781 245.796875 111.773438 C 244.882812 109.15625 242.03125 107.734375 239.410156 108.585938 L 238.382812 108.929688 C 236.957031 109.328125 235.585938 109.78125 234.160156 110.296875 L 225.777344 112.96875 C 220.585938 109.15625 214.882812 105.058594 208.152344 104.886719 C 203.53125 104.488281 198.910156 105.457031 194.632812 107.164062 C 198.910156 112.855469 204.730469 117.183594 209.519531 122.417969 C 218.132812 131.183594 227.089844 139.550781 235.703125 148.261719 C 238.382812 151.050781 241.460938 153.667969 243.289062 157.195312 C 244.429688 159.417969 243.6875 161.863281 242.433594 163.855469 C 242.203125 164.085938 241.804688 164.484375 241.578125 164.710938 C 232.90625 170.117188 223.550781 174.386719 214.425781 178.996094 C 210.546875 180.761719 206.78125 182.925781 202.734375 184.289062 C 195.375 180.648438 189.101562 175.070312 181.859375 171.140625 C 177.292969 171.257812 173.015625 173.191406 168.625 174.214844 C 168.453125 174.726562 168.398438 174.898438 168.226562 175.410156 C 173.929688 181.898438 180.429688 187.707031 186.476562 193.910156 C 186.761719 194.195312 187.332031 194.765625 187.5625 194.992188 C 185.050781 196.757812 182.597656 198.75 181.34375 201.652344 C 184.308594 201.652344 187.21875 201.480469 190.183594 201.253906 C 190.128906 210.757812 190.871094 220.265625 190.925781 229.769531 C 194.976562 227.265625 199.367188 225.160156 203.132812 222.199219 C 205.414062 214.117188 206.269531 205.691406 207.925781 197.4375 C 211.402344 196.015625 214.882812 194.648438 218.417969 193.398438 C 227.660156 190.039062 236.898438 186.453125 246.367188 183.722656 C 249.503906 182.695312 253.097656 182.640625 255.550781 185.144531 C 256.578125 188.445312 257.203125 191.859375 257.433594 195.277344 C 257.546875 215.3125 258.34375 235.347656 258.003906 255.328125 C 258.628906 255.726562 258.746094 255.839844 259.371094 256.179688 C 263.535156 254.132812 267.699219 251.625 270.324219 247.699219 C 274.257812 242.519531 275.058594 235.917969 276.199219 229.710938 C 279.621094 227.835938 285.667969 224.53125 288.859375 222.824219 C 290.285156 222.027344 291.085938 220.433594 290.800781 218.785156 C 290.570312 217.304688 290 215.9375 289.03125 214.914062 C 288.121094 213.945312 286.691406 213.605469 285.382812 213.945312 C 283.269531 214.457031 281.21875 215.140625 279.164062 215.824219 L 279.335938 214.289062 C 280.019531 210.472656 281.046875 206.71875 282.074219 202.960938 C 286.179688 200.683594 290.570312 198.863281 294.449219 196.300781 C 295.761719 195.445312 296.503906 193.910156 296.445312 192.375 C 296.390625 191.519531 296.21875 190.609375 295.820312 189.867188 C 295.019531 188.046875 293.082031 187.023438 291.085938 187.363281 C 289.03125 187.707031 287.09375 188.390625 285.097656 188.84375 C 286.066406 185.257812 286.863281 181.617188 287.71875 177.972656 C 288.917969 173.648438 289.660156 169.207031 291.140625 164.9375 C 295.476562 162.320312 300.554688 161.179688 305.117188 158.90625 C 311.847656 155.71875 318.804688 152.757812 324.679688 148.089844 C 327.703125 145.640625 330.097656 142.398438 330.328125 138.414062 C 330.382812 138.128906 330.269531 137.957031 330.097656 137.84375 Z M 330.097656 137.84375 " fill-opacity="1" fill-rule="nonzero"/></g></svg>